<svg id="visual" viewBox="0 0 900 675" width="900" height="675" xmlns="http://www.w3.org/2000/svg" xmlns:xlink="http://www.w3.org/1999/xlink" version="1.1"><rect width="900" height="675" fill="#020029"></rect><g><g transform="translate(72 581)"><path d="M0 -112.7L107.1 -34.8L66.2 91.1L-66.2 91.1L-107.1 -34.8Z" fill="none" stroke="#297EA6" stroke-width="2"></path></g><g transform="translate(720 296)"><path d="M0 -95L90.4 -29.4L55.8 76.9L-55.8 76.9L-90.4 -29.4Z" fill="none" stroke="#297EA6" stroke-width="2"></path></g><g transform="translate(642 665)"><path d="M0 -66L62.8 -20.4L38.8 53.4L-38.8 53.4L-62.8 -20.4Z" fill="none" stroke="#297EA6" stroke-width="2"></path></g><g transform="translate(535 116)"><path d="M0 -88L83.7 -27.2L51.7 71.2L-51.7 71.2L-83.7 -27.2Z" stroke="#297EA6" fill="none" stroke-width="2"></path></g><g transform="translate(343 279)"><path d="M0 -45L42.8 -13.9L26.5 36.4L-26.5 36.4L-42.8 -13.9Z" stroke="#297EA6" fill="none" stroke-width="2"></path></g><g transform="translate(129 9)"><path d="M0 -103L98 -31.8L60.5 83.3L-60.5 83.3L-98 -31.8Z" stroke="#297EA6" fill="none" stroke-width="2"></path></g></g></svg>